# xmcd
#
# Track frame offsets:
#	150
#	11756
#	21151
#	33234
#	43961
#	56924
#	70364
#	82096
#	90888
#	104479
#	114879
#	127869
#	138068
#	148895
#	160828
#	171303
#	182859
#	193385
#	204668
#	219160
#
# Disc length: 3063 seconds
#
# Revision: 0
# Processed by: cddbd v1.5.1PL0 Copyright (c) Steve Scherf et al.
# Submitted via: dBpowerAMP V4.0
#
DISCID=220bf514
DTITLE=Patsy Cline - The Gold Collection
DYEAR=2002
DGENRE=Country
TTITLE0=The Heart You Break May Be Your Own
TTITLE1=Love Me Love Me Honey Do
TTITLE2=No More
TTITLE3=Too Many Secrets
TTITLE4=Yes I Understand
TTITLE5=If I Could See The World
TTITLE6=Cry Not For Me
TTITLE7=Come On In
TTITLE8=Life's Railway To Heaven
TTITLE9=Turn The Cards Slowly
TTITLE10=Fingerprints
TTITLE11=Walking Dream
TTITLE12=I Cried All The Way To The Alter
TTITLE13=In Care Of The Blues
TTITLE14=Three Cigarettes In The Ashtray
TTITLE15=I've Loved And Lost Again
TTITLE16=Honky Tonk Metty Go Round
TTITLE17=Just Out Of Reach
TTITLE18=Then You'll Know
TTITLE19=Stop Look And Listen
EXTD=
EXTT0=
EXTT1=
EXTT2=
EXTT3=
EXTT4=
EXTT5=
EXTT6=
EXTT7=
EXTT8=
EXTT9=
EXTT10=
EXTT11=
EXTT12=
EXTT13=
EXTT14=
EXTT15=
EXTT16=
EXTT17=
EXTT18=
EXTT19=
PLAYORDER=
